Coordinates
version=1
nRows=7
nColumns=40
inDegrees=yes

Units are S.I. units (second, meters, Newtons, ...)
If the header above contains a line with 'inDegrees', this indicates whether rotational values are in degrees (yes) or radians (no).

endheader
time	pelvis_tilt	pelvis_list	pelvis_rotation	pelvis_tx	pelvis_ty	pelvis_tz	hip_flexion_r	hip_adduction_r	hip_rotation_r	knee_angle_r	knee_angle_r_beta	ankle_angle_r	subtalar_angle_r	mtp_angle_r	hip_flexion_l	hip_adduction_l	hip_rotation_l	knee_angle_l	knee_angle_l_beta	ankle_angle_l	subtalar_angle_l	mtp_angle_l	lumbar_extension	lumbar_bending	lumbar_rotation	arm_flex_r	arm_add_r	arm_rot_r	elbow_flex_r	pro_sup_r	wrist_flex_r	wrist_dev_r	arm_flex_l	arm_add_l	arm_rot_l	elbow_flex_l	pro_sup_l	wrist_flex_l	wrist_dev_l
      1.39000000	      2.34979873	     -6.47098960	     89.15318076	      0.22930538	      0.92815112	     -0.86631046	     20.87532349	      5.98292578	     -6.62867946	     17.93743735	      0.31306734	      2.17428209	      0.00000000	      0.00000000	     21.10972271	     -6.14830538	     -0.78009379	     60.60084589	      1.05768429	     -6.12101560	      0.00000000	      0.00000000	     -0.16163571	      4.28181370	     -2.33068910	      0.00000000	      0.00000000	      0.00000000	      0.00000000	      0.00000000	      0.00000000	      0.00000000	      0.00000000	      0.00000000	      0.00000000	      0.00000000	      0.00000000	      0.00000000	      0.00000000
      1.40000000	      2.37666459	     -6.57613408	     89.01019104	      0.23015035	      0.92973822	     -0.87686803	     19.82616900	      6.14264777	     -6.46447987	     17.16973665	      0.29966844	      2.51505294	      0.00000000	      0.00000000	     22.58212269	     -6.20871463	     -0.76908754	     59.97147525	      1.04669970	     -5.25066162	      0.00000000	      0.00000000	     -0.14314326	      4.31316422	     -2.04523315	      0.00000000	      0.00000000	      0.00000000	      0.00000000	      0.00000000	      0.00000000	      0.00000000	      0.00000000	      0.00000000	      0.00000000	      0.00000000	      0.00000000	      0.00000000	      0.00000000
      1.41000000	      2.30267971	     -6.76596628	     88.81071670	      0.23095754	      0.93103778	     -0.88730385	     19.05689943	      6.12909885	     -6.55026522	     16.76695748	      0.29263861	      2.90102787	     -0.00000000	      0.00000000	     24.00637356	     -6.18321256	     -0.91984496	     58.90860783	      1.02814916	     -4.66689573	      0.00000000	      0.00000000	     -0.03139609	      4.23658093	     -1.65965241	     -0.00000000	     -0.00000000	     -0.00000000	      0.00000000	      0.00000000	     -0.00000000	      0.00000000	     -0.00000000	     -0.00000000	      0.00000000	      0.00000000	      0.00000000	     -0.00000000	     -0.00000000
      1.42000000	      2.43955931	     -6.69770225	     88.66901207	      0.23182954	      0.93263931	     -0.89786702	     17.52033902	      6.47651060	     -6.09195036	     15.38872994	      0.26858401	      2.88415981	      0.00000000	      0.00000000	     25.11841538	     -6.30630896	     -0.90446156	     57.66922648	      1.00651788	     -3.67124084	      0.00000000	      0.00000000	     -0.22611609	      4.37220454	     -1.41881188	      0.00000000	      0.00000000	      0.00000000	      0.00000000	      0.00000000	      0.00000000	      0.00000000	      0.00000000	      0.00000000	      0.00000000	      0.00000000	      0.00000000	      0.00000000	      0.00000000
      1.43000000	      2.34900097	     -6.94070706	     88.48283829	      0.23252778	      0.93359835	     -0.90812823	     16.67728302	      6.48613782	     -5.90864523	     14.68526534	      0.25630623	      3.23002747	     -0.00000000	     -0.00000000	     26.43638370	     -6.15567011	     -0.99054058	     56.03139086	      0.97793226	     -3.01521037	     -0.00000000	      0.00000000	     -0.08229220	      4.27814315	     -1.15517057	      0.00000000	     -0.00000000	     -0.00000000	      0.00000000	      0.00000000	     -0.00000000	      0.00000000	     -0.00000000	      0.00000000	     -0.00000000	      0.00000000	      0.00000000	      0.00000000	     -0.00000000
      1.44000000	      2.37871883	     -6.90195228	     88.29405898	      0.23330562	      0.93485060	     -0.91864243	     15.33117205	      6.65685133	     -5.58520212	     13.62447371	      0.23779193	      3.13787609	      0.00000000	      0.00000000	     27.29016688	     -6.15574260	     -1.13004853	     54.03631891	      0.94311168	     -2.47061560	      0.00000000	      0.00000000	     -0.22727513	      4.29753152	     -0.83594527	      0.00000000	      0.00000000	      0.00000000	      0.00000000	      0.00000000	      0.00000000	      0.00000000	      0.00000000	      0.00000000	      0.00000000	      0.00000000	      0.00000000	      0.00000000	      0.00000000
      1.45000000	      2.31908997	     -7.21135642	     88.11714053	      0.23399664	      0.93531620	     -0.92889375	     14.58049643	      6.68750285	     -5.43859474	     12.95524754	      0.22611172	      3.47305812	     -0.00000000	      0.00000000	     28.47773872	     -6.01689180	     -1.23089187	     51.84936122	      0.90494207	     -2.02627168	     -0.00000000	      0.00000000	      0.02950666	      4.20686921	     -0.56071178	     -0.00000000	      0.00000000	      0.00000000	      0.00000000	      0.00000000	     -0.00000000	     -0.00000000	     -0.00000000	     -0.00000000	      0.00000000	      0.00000000	      0.00000000	     -0.00000000	     -0.00000000
